<?xml version="1.0" standalone="no"?>
<!DOCTYPE svg PUBLIC "-//W3C//DTD SVG 1.1//EN" "http://www.w3.org/Graphics/SVG/1.1/DTD/svg11.dtd">
<svg xmlns="http://www.w3.org/2000/svg">
<metadata>Copyright (C) 2014 by original authors @ fontello.com</metadata>
<defs>
<font id="icons" horiz-adv-x="1000" >
<font-face font-family="icons" font-weight="400" font-stretch="normal" units-per-em="1000" ascent="850" descent="-150" />
<missing-glyph horiz-adv-x="1000" />
<glyph glyph-name="info" unicode="&#xe800;" d="m352 850q48 0 74-27t26-69q0-50-39-88t-95-38q-48 0-74 26t-24 72q0 46 35 85t97 39z m-206-1000q-100 0-54 178l60 254q14 56 0 56-12 0-54-18t-72-38l-26 44q90 78 189 126t151 48q78 0 36-162l-70-266q-16-64 6-64 44 0 118 60l30-40q-84-86-175-132t-139-46z" horiz-adv-x="460" />
<glyph glyph-name="check" unicode="&#xe801;" d="m786 331v-177q0-67-47-114t-114-47h-464q-67 0-114 47t-47 114v464q0 66 47 113t114 48h464q35 0 65-14 9-4 10-13 2-10-5-16l-27-28q-6-5-13-5-2 0-5 1-13 3-25 3h-464q-37 0-63-26t-27-63v-464q0-37 27-63t63-27h464q37 0 63 27t26 63v141q0 8 5 13l36 35q6 6 13 6 3 0 7-2 11-4 11-16z m129 273l-455-454q-13-14-31-14t-32 14l-240 240q-14 13-14 31t14 32l61 62q14 13 32 13t32-13l147-147 361 361q13 13 31 13t32-13l62-61q13-14 13-32t-13-32z" horiz-adv-x="928.6" />
<glyph glyph-name="location" unicode="&#xe802;" d="m250 750q104 0 177-73t73-177q0-106-62-243t-126-223l-62-84q-10 12-27 35t-60 89-76 130-60 147-27 149q0 104 73 177t177 73z m0-388q56 0 96 40t40 96-40 95-96 39-95-39-39-95 39-96 95-40z" horiz-adv-x="500" />
<glyph glyph-name="rocket" unicode="&#xe803;" d="m543 236q6-50 8-81t-8-59-13-40-35-32-45-26-70-31-85-37q-32-12-45 4t-3 44l40 110-130 132-106-40q-28-12-43 2t-3 46q12 30 31 79t27 65 22 45 25 36 29 20 41 13l52 0t71-6q10 14 29 39t77 85 118 104 145 75 165 19q8 0 14-6 4-4 6-14 10-82-18-168t-76-151-98-118-86-81z m50 296q22-22 54-22t54 22q22 24 22 56t-22 56q-22 22-54 22t-54-22q-22-24-22-56t22-56z" horiz-adv-x="860" />
<glyph glyph-name="email" unicode="&#xe804;" d="m0 62l0 576q0 1 3 19l339-290-338-325q-4 14-4 20z m45 635q7 3 17 3l913 0q9 0 18-3l-340-291-45-36-89-73-89 73-45 36z m1-694l341 327 132-107 132 107 341-327q-8-3-17-3l-913 0q-8 0-16 3z m650 364l338 290q3-9 3-19l0-576q0-9-3-20z" horiz-adv-x="1037" />
<glyph glyph-name="check-empty" unicode="&#xe805;" d="m625 707h-464q-37 0-63-26t-27-63v-464q0-37 27-63t63-27h464q37 0 63 27t26 63v464q0 37-26 63t-63 26z m161-89v-464q0-67-47-114t-114-47h-464q-67 0-114 47t-47 114v464q0 66 47 113t114 48h464q66 0 114-48t47-113z" horiz-adv-x="785.7" />
<glyph glyph-name="th-list" unicode="&#xe806;" d="m160 660l0-161-160 0 0 161 160 0z m0-230l0-162-160 0 0 162 160 0z m0-230l0-160-160 0 0 160 160 0z m641 406l0-81-533 0 0 81 533 0z m0-230l0-81-533 0 0 81 533 0z m0-217l0-81-533 0 0 81 533 0z" horiz-adv-x="801" />
<glyph glyph-name="github" unicode="&#xe807;" d="m0 350q0-130 63-235 63-109 171-171t235-63q127 0 235 63 109 63 171 171t62 235q0 129-62 235-63 109-171 171t-235 62q-130 0-235-63-109-63-171-171t-63-234z m78 0q0 78 31 151t84 125q53 53 125 84t151 30 150-30 126-84q53-53 83-126t31-150q0-84-34-160t-97-132-142-80v137q0 52-42 80 103 10 150 53t48 136q0 72-45 121 9 27 9 51 0 36-16 66-33 0-59-10t-63-37q-46 10-94 10-55 0-103-11-37 26-63 37t-61 11q-16-30-16-66 0-25 9-51-45-48-45-121 0-93 48-136t151-52q-27-19-38-54-24-9-50-9-19 0-34 9-4 3-8 5t-7 7-7 6-6 8-5 6-6 8-5 7q-23 30-55 30-17 0-17-7 0-3 9-10 15-13 16-14 12-10 13-12 14-18 22-39 27-61 93-61 11 0 42 5v-103q-80 25-142 80t-96 132-35 160z" horiz-adv-x="937.5" />
<glyph glyph-name="address" unicode="&#xe808;" d="m426 800q20 0 20-20l0-860q0-20-20-20l-46 0q-20 0-20 20l0 440-176 0q-16 0-28 6-12 2-26 12l-120 82q-10 6-10 16t10 16l120 82q14 10 26 12 8 4 28 4l176 0 0 190q0 20 20 20l46 0z m564-208q10-6 10-16t-10-16l-118-82q-22-12-26-12-14-6-28-6l-302 0-40 230 342 0q18 0 28-4t26-12z" horiz-adv-x="1000" />
<glyph glyph-name="plus-circled" unicode="&#xe809;" d="m420 770q174 0 297-123t123-297-123-297-297-123-297 123-123 297 123 297 297 123z m52-470l200 0 0 102-200 0 0 202-102 0 0-202-202 0 0-102 202 0 0-202 102 0 0 202z" horiz-adv-x="840" />
<glyph glyph-name="map" unicode="&#xe80a;" d="m984 600q16-10 16-30l0-584q0-20-16-30-8-6-16-6t-18 6l-216 136-216-136q-18-10-34 0l-218 136-216-136q-16-10-34 0-16 10-16 30l0 584q0 20 16 30l234 146q18 10 34 0l216-136 218 136q16 10 32 0z m-750-450l0 506-168-104 0-506z m234-104l0 506-168 104 0-506z m234 104l0 506-170-104 0-506z m232-104l0 506-168 104 0-506z" horiz-adv-x="1000" />
<glyph glyph-name="user" unicode="&#xe80b;" d="m736 128q204-72 204-122l0-106-940 0 0 106q0 50 204 122 94 34 128 69t34 95q0 22-22 49t-32 73q-2 12-9 18t-14 8-14 17-9 43q0 16 5 26t9 12l4 4q-8 50-12 88-4 54 41 112t157 58 158-58 40-112l-12-88q18-8 18-42-2-28-9-43t-14-17-14-8-9-18q-8-48-31-74t-23-48q0-60 35-95t127-69z" horiz-adv-x="940" />
<glyph glyph-name="users" unicode="&#xe80c;" d="m1000-90l-224 0 0 150q0 54-30 81t-154 89q40 30 40 84 0 16-13 33t-19 51q-2 8-14 16t-14 42q0 24 12 30-6 34-8 60-4 38 23 78t95 40 96-40 24-78l-8-60q12-6 12-30-2-34-14-42t-14-16q-6-34-19-51t-13-33q0-42 21-66t77-48q112-46 130-80 6-8 9-61t5-101l0-48z m-488 262q182-78 182-124l0-138-694 0 0 184q0 44 84 78 76 32 104 64t28 88q0 20-19 44t-25 68q-2 10-18 22t-20 56q0 14 3 23t7 13l4 2q-6 46-10 82-4 50 33 103t127 53 127-53 33-103l-10-82q14-8 14-38-4-44-20-56t-18-22q-6-44-25-68t-19-44q0-56 28-88t104-64z" horiz-adv-x="1000" />
<glyph glyph-name="user-add" unicode="&#xe80d;" d="m620 128q180-64 180-122l0-106-800 0 0 202q36 14 82 26 94 34 129 69t35 95q0 22-23 48t-31 74q-2 12-23 25t-25 61q0 16 5 26t9 12l4 4q-8 50-12 88-6 54 40 112t160 58 160-58 42-112l-14-88q18-8 18-42-2-28-9-43t-14-17-14-8-9-18q-10-46-33-73t-23-49q0-60 36-95t130-69z m230 272l150 0 0-100-150 0 0-150-100 0 0 150-150 0 0 100 150 0 0 150 100 0 0-150z" horiz-adv-x="1000" />
<glyph glyph-name="cancel" unicode="&#xe80e;" d="m724 112q0-22-15-38l-76-76q-16-15-38-15t-38 15l-164 165-164-165q-16-15-38-15t-38 15l-76 76q-16 16-16 38t16 38l164 164-164 164q-16 16-16 38t16 38l76 76q16 16 38 16t38-16l164-164 164 164q16 16 38 16t38-16l76-76q15-15 15-38t-15-38l-164-164 164-164q15-15 15-38z" horiz-adv-x="785.7" />
<glyph glyph-name="mountains" unicode="&#xe80f;" d="m1583 631c-124-118-226-215-228-215-2 0-93 90-203 200-110 110-202 199-203 197-2-1-81-98-175-216l-170-215-89 45-90 45-8-11c-27-40-150-174-311-341-45-47-79-84-75-82 55 32 140 98 231 180 81 73 110 87 138 66 17-14 27-34 54-104 32-87 28-82 48-64 28 24 85 97 179 227 50 69 104 141 120 162 31 39 65 74 68 70 1-1 9-28 18-61 22-82 60-195 64-195 5 0 32 51 51 100 37 89 58 121 79 121 6 0 27-9 46-21 19-12 73-43 121-69 47-26 87-49 88-50 1-1-6-9-15-19l-18-16-106 8c-69 4-108 6-111 3-12-11-279-316-278-317 0-1 58 33 128 74 80 47 129 73 130 70 1-3 5-22 9-42l7-36 46 35 47 35 24-2c13-1 43-3 65-4l40-3 178 186c99 103 180 185 180 183 1-2 4-34 5-71 2-37 5-68 7-70 1-1 36 24 77 55 42 32 78 58 80 58 2 0 32-93 67-207 35-114 64-208 65-208 1-1 39 26 84 60 46 33 86 63 89 64 3 2 81-40 182-98 98-56 179-102 181-102 2 0 38 41 79 91l76 90 92-119 92-119 20 11c11 6 27 15 34 20l14 8 107-84c60-47 103-79 97-72-6 7-99 108-207 224-195 210-196 211-208 205-27-14-221-100-224-100-2 0-42 37-87 83l-84 83 88 57c48 32 90 59 92 60 3 2 20-24 42-64l38-68 2 122 2 122 33-77c23-54 34-74 35-66 0 6 3 27 4 46l3 34 85-81c46-45 89-85 96-91l11-10 45 22 45 23 149-112c81-62 152-115 157-118 8-6-151 152-271 268l-42 40-33-22c-17-12-34-21-35-20-3 1-61 68-131 151-70 81-129 149-131 149-2 0-81-68-176-151l-171-150-213 212c-116 117-213 213-214 213-2 0-104-97-227-215z" horiz-adv-x="3239" />
<glyph glyph-name="link" unicode="&#xe810;" d="m294 116q14 14 34 14t36-14q32-34 0-70l-42-40q-56-56-132-56-78 0-134 56t-56 132q0 78 56 134l148 148q70 68 144 77t128-43q16-16 16-36t-16-36q-36-32-70 0-50 48-132-34l-148-146q-26-26-26-64t26-62q26-26 63-26t63 26z m450 574q56-56 56-132 0-78-56-134l-158-158q-74-72-150-72-62 0-112 50-14 14-14 34t14 36q14 14 35 14t35-14q50-48 122 24l158 156q28 28 28 64 0 38-28 62-24 26-56 31t-60-21l-50-50q-16-14-36-14t-34 14q-34 34 0 70l50 50q54 54 127 51t129-61z" horiz-adv-x="800" />
<glyph glyph-name="menu" unicode="&#xe811;" d="m857 100v-71q0-15-10-25t-26-11h-785q-15 0-25 11t-11 25v71q0 15 11 25t25 11h785q15 0 26-11t10-25z m0 286v-72q0-14-10-25t-26-10h-785q-15 0-25 10t-11 25v72q0 14 11 25t25 10h785q15 0 26-10t10-25z m0 285v-71q0-15-10-25t-26-11h-785q-15 0-25 11t-11 25v71q0 15 11 26t25 10h785q15 0 26-10t10-26z" horiz-adv-x="857.1" />
<glyph glyph-name="slide" unicode="&#xe812;" d="m115 836c-47-11-86-48-99-93-7-20-7-28-6-401l1-381 12-23c14-30 38-53 67-67 21-10 22-10 81-12 32-1 59-1 59 0 0 0-6 6-13 13-19 19-36 47-44 73l-8 23 0 380 0 381 7 22c9 27 25 55 44 75l15 15-50-1c-29 0-57-2-66-4z m251 0c-49-13-83-45-98-92-7-20-7-21-6-401l1-382 11-23c15-30 39-53 68-67 21-10 22-10 80-12 33-1 59-1 59 0 0 1-6 8-14 16-28 27-43 60-49 104-2 15-3 156-2 388l1 365 7 21c9 27 22 48 41 70l17 18-50-1c-33 0-56-1-66-4z m282 0c-57-16-100-59-115-113-4-17-5-65-5-372 0-393 0-379 21-415 6-10 16-23 21-29 16-16 45-34 70-42l22-7 377 0 378 0 22 7c55 17 97 62 108 115 2 11 3 134 3 378-1 361-1 362-8 379-19 50-65 89-117 100-11 3-130 4-388 3-316 0-374-1-389-4z" horiz-adv-x="1560" />
<glyph glyph-name="intuit" unicode="&#xe813;" d="m1282 838c-18-7-43-30-53-50-11-20-10-67 1-91 40-84 169-67 190 25 10 45-17 98-59 115-21 9-59 9-79 1z m1735-4c-34-18-52-46-55-83-2-28 0-37 12-57 34-58 112-69 159-21 38 37 42 90 10 133-26 35-88 49-126 28z m-2343-271c-50-10-141-49-152-67-7-11-14-5-14 13 0 10-4 24-9 31-7 11-12 12-70 12-54 0-64-2-71-10-9-10-10-41-10-332 0-284 1-321 9-329 7-7 22-9 76-9 45 0 70 2 74 7 5 5 7 65 7 240l0 233 25 17c43 30 85 46 127 49 49 3 74-4 96-29 25-30 28-55 28-285 0-135 2-214 6-221 5-10 12-11 77-11 65 0 72 1 77 11 10 18 8 475-2 521-16 73-57 125-117 148-36 14-114 19-157 11z m-665-20c-8-8-9-45-9-327 0-280 1-321 9-332 8-11 12-12 77-12 54 0 70 2 76 9 8 8 9 45 9 331 0 286-1 323-9 331-12 13-140 13-153 0z m1042 2c-5-4-7-27-7-65 0-80-4-77 107-77l87 0 0-260c0-251 0-260 10-265 14-8 131-8 145 0 10 5 10 14 10 265l0 260 88 0c73 0 90 1 97 8 11 11 13 124 2 134-9 9-530 9-539 0z m675-1c-10-8-10-17-10-253 0-217 1-249 10-280 13-49 28-75 56-104 34-31 75-47 137-50 77-4 149 14 213 56l28 20 0-18c0-10 4-24 9-31 8-11 13-12 71-12 50 0 65 2 72 9 7 8 8 45 8 331 0 286-1 323-8 331-12 12-133 13-150 1-9-8-10-18-13-244l-3-236-35-22c-48-28-87-39-132-36-44 2-66 15-82 47-9 19-10 41-13 255-2 199-4 234-11 238-14 9-134 7-147-2z m778 1c-5-5-7-86-7-331 0-288 1-325 9-333 7-7 22-9 77-9 66 0 69 1 77 13 8 11 9 52 7 335-1 278-2 322-9 326-13 8-146 7-154-1z m289-2c-6-7-8-21-8-62 0-81-3-78 105-78l88 0 0-257c0-228 1-257 9-266 7-7 20-8 78-7 69 2 70 2 77 16 6 10 7 73 7 264l0 250 84 0c46 0 87 2 94 5 9 6 10 12 10 68 0 41-2 65-7 69-5 5-71 7-267 7-230 0-262-1-270-9z" horiz-adv-x="3343" />
<glyph glyph-name="gatorade" unicode="&#xe814;" d="m718 850c0 0 0-11 0-24l0-23-5 2c-15 5-38 12-56 16-66 17-143 20-216 11-66-8-129-27-184-56-64-34-118-80-160-137-25-33-48-74-63-115-19-48-29-98-33-155-1-12-1-47-1-60 5-100 34-188 87-262 22-30 49-59 77-82 59-50 131-84 212-101 28-7 57-11 90-13 14-1 56-1 71-1 53 3 98 9 145 21 70 18 137 48 196 87l8 6 0 219 0 219-117 0-118 0-87-89-86-89 80 0 81 0 0-69 0-68-9-4c-21-8-37-13-54-15-21-3-50-3-74 0-44 6-87 22-121 48l-5 4-6-7c-4-3-27-26-52-51-37-37-45-45-44-43 0 1 13 34 28 73 15 40 28 72 28 72 0 1-1 3-3 5-10 14-21 35-29 53-13 32-21 65-24 101-1 11-1 40-1 50 4 47 17 88 39 124 10 18 21 32 36 47 19 18 36 31 59 42 11 6 20 10 30 13 29 10 61 14 94 12 29-1 51-5 74-13l10-3 100 32c55 18 100 33 100 33 0 0-16-20-35-44-19-24-35-44-35-44 0 0 0 0 0 0 1 0 24 8 52 18 29 11 52 19 53 19 1 1 1 1 1 0 0 0-17-17-36-37-20-21-38-38-39-40l-2-3 47 0 48 0 0 161 0 160-75 0c-42 0-76 0-76 0z m-95-272c-116-38-142-47-142-48-2-2-112-169-112-169 0-1 15 5 33 12 19 7 34 13 34 13l1 0 0-2c-8-19-112-281-116-292l-3-6 6 6c14 13 461 475 461 475 0 0-22-7-47-16-26-9-47-17-47-17-1 0 16 20 36 44 42 51 39 48 38 48 0-1-64-22-142-48z m38-3c0-1-17-22-38-47-21-25-38-46-38-46 0 0 7 2 16 5 9 3 26 9 37 13 12 4 22 8 22 8 0 0-258-267-264-273l-4-4 1 2c0 1 18 47 40 102 47 119 44 111 44 112 0 0-10-4-22-8-12-5-22-9-22-9 0 1 56 87 57 88 1 0 39 13 86 29 47 15 85 28 85 28 0 0 0 0 0 0z" horiz-adv-x="886" />
<glyph glyph-name="sony" unicode="&#xe815;" d="m499 849c-127-7-257-42-347-94-32-18-59-38-82-61-49-49-72-106-70-170 1-27 6-47 15-69 10-25 23-44 43-64 57-56 155-94 309-120 51-9 103-15 200-27 61-6 107-12 134-16 115-17 176-37 206-68 11-12 16-23 18-37 2-8 1-12-8-25-16-24-40-44-72-60-38-19-83-31-140-36-37-4-103-3-151 1-166 14-293 63-354 135-23 28-38 60-41 91 0 7-1 13-1 15l-1 4-71 0-70 0 0-174 0-173 75 0 75 0 0 28 0 29 7-1c17-1 36-6 36-9 0-4 76-27 158-47 91-22 169-37 224-42 19-2 62-2 87-1 126 8 245 36 328 78 96 48 150 113 163 198 3 18 3 57 0 77-4 27-10 46-21 69-16 33-39 60-69 84-71 56-175 92-338 116-43 6-94 12-189 21-125 12-165 18-209 29-46 11-71 25-80 45-3 6-4 7-4 18 0 11 1 13 3 21 12 34 49 58 111 74 47 11 92 16 161 17 48 0 72 0 113-5 137-13 240-50 295-105 13-13 18-18 26-32 11-18 18-37 21-59l2-13 64 0 63 0 0 152 0 153-66 0-65 0 0-22-1-21-3-2c-8-6-19-5-29 1-12 8-57 27-96 40-128 44-250 63-359 57z m1474-1c-202-10-387-85-506-205-32-32-61-70-81-107-7-13-9-17-17-33-12-26-21-57-27-88-4-24-5-35-5-66 0-31 1-42 5-66 5-26 11-47 21-72 53-136 185-251 360-312 60-22 123-36 195-45l24-2 77 0c83 0 84 0 126 5 235 32 432 153 516 316 21 42 34 81 41 129 2 18 2 76 0 94-7 48-21 90-42 131-73 139-226 247-418 295-57 14-114 23-177 26-23 1-69 1-92 0z m71-159c109-6 205-47 276-116 81-79 114-182 92-285-17-81-69-155-146-207-101-67-233-89-357-59-61 16-117 43-165 82-11 8-37 34-46 45-35 40-59 90-70 140-8 39-8 81 0 120 10 49 33 96 67 137 10 12 38 39 50 49 49 39 102 65 164 81 45 11 89 15 135 13z m774 81c-1-1-1-27-1-59l0-58 70 0c64 0 71 0 76-2 8-3 14-6 17-12l2-5 0-303 0-303-2-5c-3-5-6-7-12-11l-5-2-71 0-72-1 0-59 0-60 262 0 263 0 0 60 0 59-80 1-80 0-5 2c-4 2-6 3-7 8l-3 4 0 239c0 132 0 239 1 239 0 0 8-7 18-15 10-9 23-21 29-27 7-5 18-15 24-20 17-16 17-16 37-33 9-9 18-16 18-17 0 0 5-4 9-8 5-4 10-8 10-9 1 0 5-4 9-7 4-4 10-9 13-12 3-3 39-35 81-72 64-57 86-77 93-83 0 0 7-6 14-13 8-6 14-12 14-12 1 0 5-4 11-9 14-13 25-22 26-24 1 0 7-6 15-12 14-13 31-29 32-29 1-1 34-31 75-67 41-37 75-67 76-68 1 0 5-4 9-7 4-4 10-9 12-11 3-3 7-6 9-9 3-2 8-6 11-9 4-3 12-11 19-17 7-6 15-13 18-16l6-6 97 0 98 0 0 359c0 316 0 359 1 365 5 18 17 28 36 30 4 0 35 0 70 0l63 1 0 62 0 63-263 0-264 0 0-63 0-63 69 0c78 0 76 0 90-7 8-5 16-12 19-19l2-4 1-193c0-106 0-193-1-193 0 0-5 4-10 8-4 4-22 20-39 35-17 15-36 33-42 39-14 12-27 24-36 32-10 9-47 42-59 53-6 6-20 18-31 28-11 10-22 19-24 22-10 9-30 27-39 34-5 5-11 11-15 14-6 6-54 49-84 76-9 8-30 27-47 42-17 16-38 34-46 42-8 7-20 18-27 24-19 17-30 27-32 29-1 1-6 5-11 9-4 5-9 9-10 10-2 2-12 11-34 31l-16 14-228 0c-126 0-229 0-229 0z m1510-63l0-63 80 0 80 0 15-16c9-9 20-22 26-28 5-6 10-12 10-12 1 0 6-5 11-12 6-6 11-11 11-12 0 0 6-6 12-13 7-7 14-15 17-18 2-2 21-23 41-45 20-23 44-49 53-59 9-9 21-23 27-29 6-7 14-15 18-19 5-6 16-18 36-41 1 0 4-4 8-8 3-3 10-11 15-17 6-5 10-10 11-11 0-1 5-6 11-12 5-6 10-11 10-11 0-1 5-6 11-12 5-6 13-15 16-18 7-7 21-23 28-31l4-4 0-95c0-92 0-94-2-100-1-3-4-6-5-8-7-6-8-6-85-6l-72 0 0-56 0-57 307 0 307 0 0 57 0 57-80-1c-72 0-80 0-84 2-5 2-7 4-10 9-2 4-2 9-2 96l0 92 8 9c5 4 11 11 15 15 3 4 10 11 15 16 4 5 12 13 17 19 5 5 12 12 16 17 4 4 11 11 16 16 4 5 12 14 17 19 21 22 26 28 48 51 5 5 15 15 22 23 8 9 18 20 23 25 8 8 48 51 64 68 4 4 10 11 15 16 14 15 24 26 33 35 4 4 13 14 21 22 7 8 15 17 18 20 3 3 19 20 34 36l29 31 72 0 73 0 0 63 0 63-253 0-254 0 0-63 0-63 42 0c39 0 43 0 46-2 5-2 11-8 12-12 1-6-2-10-17-26-13-14-28-30-41-44-2-3-7-9-11-13-7-7-46-50-68-75-6-6-12-12-12-13-3-2-19-20-21-23-1-1-14-15-28-30l-26-29-8 8c-4 4-13 14-20 21-7 8-19 21-28 30-8 10-21 23-28 31-14 15-41 44-51 55-3 4-9 10-12 14-33 36-65 73-69 81-6 12-4 22 4 25 3 2 9 2 45 2l42 0 0 63 0 63-312 0-313 0 0-63z" horiz-adv-x="5709" />
<glyph glyph-name="jagged" unicode="&#xe816;" d="m664 730c-1-1-34-73-73-158-40-86-73-156-73-156 0 0-46-15-101-32-55-17-100-32-101-32 0-1-41-83-91-182-50-99-91-181-91-181 0 0 79 21 176 48 96 26 175 48 176 48 1 0 41-26 90-58 49-32 89-58 90-58 0 0 43 25 95 57 52 32 95 58 96 58 1 1 79-15 172-34 93-19 169-34 169-34 1 0-186 335-188 336-1 1-44 15-96 32-52 17-95 31-96 32-1 1-119 246-148 308-4 9-4 9-6 6z m49-300l45-98-44 0c-24 0-65 0-90 0l-45 0 43 100c27 63 43 99 44 98 0-1 22-46 47-100z" horiz-adv-x="1333" />
<glyph glyph-name="ue" unicode="&#xe817;" d="m422 844c0-5-1-6-10-8-6-1-11-1-12 0-1 0-4-1-7-3-2-2-4-3-4-1 0 1-2 3-4 3-3 0-3-1-1-5 2-5 1-5-3-5-4 0-9 2-11 4-5 4-5 4-3-5 2-10-2-14-5-6-3 6-11 8-39 10-12 1-17-1-11-5 3-2 3-11 0-11-1 0-5 2-7 4-6 6-23 7-22 1 0-2 1-6 2-7 2-3 0-5-10-7-6-2-7-3-5-7 1-3 1-8 1-9 0-19-1-21-4-21-2 0-4 1-4 2 0 1-3 1-6 1-4-1-6-3-5-5 0-2 2-5 3-7 2-5-3-5-7-1-1 2-6 3-13 3-13-1-14-2-11-8 4-6-3-14-10-11-7 4-13 1-11-5 2-4 1-5-2-5-2 0-4-2-4-5 0-3 1-5 3-5 2 0 1-3-2-5-2-3-6-6-8-6-6 0-10-5-9-11 0-6-3-9-13-9-8 0-9-4-3-12 3-5 3-6 0-9-5-3-5-7 0-7 5 0 3-8-3-11-8-4-8-8 0-6 5 2 7 1 7-2 0-2-1-4-3-4-1 0-2-2-1-3 1-1 3-2 4-1 4 3 2-4-4-13-3-5-5-11-5-13 1-2 0-6-3-9-5-5-3-10 4-10 2 0 6-1 7-3 2-1 4-1 6 1 4 4 26 6 26 2 0-1 2-2 6-2 4 0 6 1 6 4 0 3 2 4 7 2 4-1 8 0 11 4 3 3 8 5 10 5 3 0 7 2 9 5 2 3 5 5 7 4 5-3 12 3 11 9-1 5-1 5 4 4 4-2 5-1 5 2 0 5 4 5 8 0 2-2 4-3 5-3 0 1 3 1 5-1 5-2 6-1 8 4 3 7 7 9 9 3 2-6 7-5 6 1-2 6 9 7 12 0 0-3 3-5 4-5 3 0 10-7 10-10 0-2 1-3 3-3 5 0 4 8-1 10-4 1-11 10-9 12 2 2 17-4 17-7 0-1 2-2 5-2 7 0 9-7 2-8-7-2-4-7 8-9 5 0 12-4 15-8 4-4 11-10 17-14 6-5 12-13 17-22 3-8 8-17 11-21 2-3 4-11 4-16 0-6 2-17 4-25 4-15 9-47 9-56 0-2-2-7-5-10-3-5-9-6-41-10-36-4-39-5-53-14-9-5-17-10-18-10-1 0-7-5-15-13-9-9-18-15-34-21-33-14-31-14-31 1 0 8 1 13 3 14 3 1 3 1 0 1-1 1-2 2-1 5 1 2 0 4-1 2-2-1-4 0-4 2-1 2-1-4-1-12 1-15 1-15-1-6-3 10-2 27 3 27 1 0 3 3 5 6 2 4 2 4-2 3-3-1-4-1-3 4 1 3 1 5-1 4-1-1-2-4-2-8 0-3-1-6-3-7-4-3-3 18 2 22 3 2 4 2 6 0 1-2 4-4 7-4 3 0 6-1 6-2 0-4-9-20-11-20-1 0-1-1 0-3 1-2 3 0 7 5 2 5 10 11 17 15l12 6 7-6c3-4 7-7 8-7 1 0 0 2-2 3-5 4-8 12-5 12 2 0 3-1 3-2 0-2 1-3 3-2 2 1 5 0 8-2 7-5 8-5 10 1 1 3 3 5 5 5 3 0 4 3 3 7 0 6 0 7 4 6 3-1 6-1 6 0 2 3-5 17-9 19-3 3-3 7 2 7 2 0 4 1 4 2 0 3-15 16-18 16-2 0-3 1-3 2 0 2-5 4-11 6-6 1-13 5-16 8-5 4-20 9-30 9-3 0-4-1-3-3 1-3 1-4-1-4-1 0-3 1-4 3-1 3-3 4-8 3-4-1-7 0-8 3-1 2-2 3-3 1-1-1-5-3-9-3-4 0-7-2-7-3 0-1-1-2-4-1-2 1-3 1-2-1 1-2-5-2-16 2-2 0-4-1-5-3-1-3-3-3-7-2-5 1-7 0-7-3 0-2-1-4-2-4-1 0-2-2-1-5 0-4-1-6-4-7-3-1-5-3-4-4 1-2 0-2-4-1-4 1-6 0-7-4-1-3-3-4-5-4-1 1-4-1-5-4-1-2-4-8-8-12-5-5-7-8-6-15 0-5 1-9 1-10 1-1 0-5-2-10-4-9-4-9 10-8 9 0 26 7 32 11 2 1 6 3 9 3 3 0 9 1 14 2 12 1 16-1 15-5-1-2-1-4 1-4 5 0 18-11 22-19 3-6 11-38 11-45 0-3-15-9-26-11-11-2-21-10-57-52-32-37-50-68-60-103-6-26-6-75 2-100 8-27 23-55 41-77 17-21 18-27 10-35-7-7-22-7-45 0-56 17-74 46-60 100 8 36 3 73-12 88-8 7-13 7-25-3l-7-6 5-6c15-15 19-41 13-83-7-49-5-71 9-99 21-42 96-94 156-109 46-12 99-1 135 27l10 9 0 71 0 72-8 2c-9 4-31 18-29 20 0 1 6-2 12-5 42-23 75 3 93 77 9 31 11 72 7 89-12 42-61 47-135 15l-15-6 8 6c11 9 41 24 58 29 41 10 79-2 96-30 6-11 7-13 7-42-1-26-2-34-8-52-3-12-6-22-6-22 1 0 6-2 12-3l12-2-1-120-1-120 40 0 40 0 0 109 0 110 15-2c8-1 24-3 37-5l22-3 0-99 0-99 17 4c10 2 26 7 38 11l21 7 1 73 1 72 8-1c4 0 20-2 35-4 15-2 29-4 30-4 2 0 3-18 3-47 0-26 0-47 1-47 4 0 27 17 44 34 50 48 75 100 75 159 0 58-22 105-72 155-14 14-26 27-28 30-1 3-8 9-16 13-7 5-14 12-16 17-2 6-7 10-21 16-20 10-21 11-21 37 0 14 1 18 5 21 4 3 4 4 0 2-5-1-5-1-1 8 7 17 16 26 31 33l14 7 8-7c4-4 6-5 5-3-2 2-3 5-2 5 1 0 1 1-1 3-3 3-3 4-1 4 2 0 3-1 3-3 0-1 2-2 4-1 2 1 7 0 11-2 8-4 14-5 13-2-1 8 1 11 6 10 3-1 5-1 4 2-1 2 0 5 1 7 1 2 1 4-1 5-2 2 0 2 5 1 4-1 8-1 9 0 2 2-6 20-10 22-2 1-5 5-6 8-3 5-2 5 2 4 9-2 10 3 2 10-3 3-6 7-6 8 0 2-3 3-7 4-3 1-6 3-6 4 0 1-2 2-4 2-2 0-4 2-4 3-1 1-5 3-9 3-5 1-12 4-17 7-5 4-9 6-10 6-2 0-2 1-2 2 0 1-4 3-9 3-5 0-10 1-10 2-3 4-13 1-12-4 1-5-3-5-7 2-3 4-4 5-6 2-2-3-2-3-2 0 0 3-1 3-2 1-3-4-11-2-11 3 0 1-1 1-2-1-1-1-6-3-11-3-6-1-9-2-8-4 1-1-1-1-4-1-4 1-6 1-6-2 0-3-1-3-3-1-3 2-14 4-22 3-1 0-2-2-1-4 1-4-2-5-6-1-4 4-12 1-10-3 1-1 0-3-2-4-3-1-4-5-4-10 0-5-1-8-2-8-6 1-8-1-7-5 1-4 1-4-2-2-2 1-5 2-7 2-1 0-4 0-5-1-1 0-2-2-2-4 0-4-1-5-6-4-3 0-5 0-4-2 1-1 0-3-1-4-1-1-2-3-1-5 1-3 0-4-3-4-2 0-5-2-6-5 0-3-3-6-5-6-3-1-4-4-4-10 0-4-1-10-2-12-3-3-3-3-1-2 5 3 7-5 4-11-2-3-4-7-5-10-3-6-4-6 15-6 7 0 13 0 13 2 0 1 2 1 4 1 7 0 24 9 24 13 0 1 1 2 3 1 1 0 2 0 2 1 0 2 2 2 7 1 4-2 6-2 6 0 0 1 1 2 4 1 2 0 4 0 4 2 1 2 4 1 8-3 3-3 7-5 8-5 2 0 0 1-3 3-2 2-4 4-3 5 3 3 15-6 14-9-1-1 0-2 1-2 5 0 23-18 28-28 3-5 7-21 9-34 5-25 5-26 0-29-6-5-8-5-30 2-22 6-39 15-48 25-14 15-49 25-92 26-8 1-16 2-18 4-3 3-4 15-4 45l-1 42 6 5c4 2 7 6 7 8 0 3-1 3-5-1-6-5-9-4-6 3 2 3 4 9 6 15 1 6 8 19 15 28 12 19 21 25 51 36 7 3 13 6 15 9 3 3 5 2 15-9 12-12 23-20 25-17 1 1-2 5-6 8-9 7-10 13-3 13 3 0 6 1 7 2 3 5 8 3 15-4 4-3 8-6 8-5 1 1 6 0 11-2 10-4 13-3 9 4-3 3-3 5 0 6 2 0 4 4 5 7 0 5 2 6 10 5 8-1 10 0 10 5 0 3-2 5-3 5-2 0-2 1-1 2 1 2 3 2 4 2 3-3 3 2-1 6-2 2-2 3 1 3 3 0 5 1 5 2 0 2-2 3-5 2-2 0-4 1-4 3 0 5 13 4 19-1 3-3 5-3 8 2 6 6 4 15-5 23-5 5-7 9-6 13 0 4 0 7-2 7-4 0-13 10-17 17-3 5-3 6 3 6 3 0 7-1 8-3 1-2 3 0 5 4 3 5 3 8 1 11-2 2-3 3-1 3 1 0-3 3-9 7-6 4-11 9-11 12-1 3-5 7-12 9-6 2-11 5-11 7 0 3-10 8-12 6-1-1-2 1-3 4-2 5-5 6-21 8-18 1-19 2-32 14-8 7-16 12-18 11-2 0-5 1-7 3-2 2-6 4-10 4-4 0-7 1-8 2 0 1-4 2-6 1-3-1-8 0-10 3-7 6-23 7-28 1-5-6-11-6-11-1 0 2-1 3-2 3-2-1-3 0-3 3 0 8-4 4-6-5-2-8-7-10-7-3 0 8-4 9-5 3-1-7-9-8-9-2 1 2-1 4-3 4-3 0-6 2-8 6l-3 6 0-7z m-235-703c0-8-2-12-8-18-10-10-21-10-32 2-10 10-11 13-4 17 7 3 31 10 38 10 5 0 6-1 6-11z" horiz-adv-x="857" />
<glyph glyph-name="right-open" unicode="&#xe818;" d="m618 361l-414-415q-11-10-25-10t-26 10l-92 93q-11 11-11 25t11 25l296 297-296 296q-11 11-11 25t11 25l92 93q11 10 26 10t25-10l414-414q10-11 10-25t-10-25z" horiz-adv-x="714.3" />
<glyph glyph-name="left-open" unicode="&#xe819;" d="m653 682l-296-296 296-297q11-10 11-25t-11-25l-92-93q-11-10-25-10t-25 10l-414 415q-11 10-11 25t11 25l414 414q10 10 25 10t25-10l92-93q11-10 11-25t-11-25z" horiz-adv-x="714.3" />
<glyph glyph-name="thumbs-down" unicode="&#xe81a;" d="m218 218q-2 6-57 13t-108 24-53 47q0 72 62 285t106 213q144 0 288-43t144-89l0-342q0-10-8-24t-25-30-32-29-42-32-41-29-41-28l-33-22q-50-34-104-100t-85-104-41-26q-48 76-29 137t59 119 40 60z m432 4q-12 0 2 14 48 50 48 104l0 318q0 50-52 104-10 10 2 10 26 0 55-8t62-45 33-99l0-242q0-48-18-81t-45-48-48-21-39-6z" horiz-adv-x="800" />
<glyph glyph-name="thumbs-up" unicode="&#xe81b;" d="m582 480q2-6 58-13t108-24 52-47q0-72-61-284t-107-212q-144 0-288 42t-144 88l0 342q0 14 15 34t46 45 53 41 62 43 46 31q50 34 104 100t85 104 41 26q48-76 29-137t-59-119-40-60z m-432-4q14 0 0-14-50-50-50-104l0-318q0-50 52-104 10-10-2-10-26 0-55 8t-62 45-33 99l0 242q0 62 33 100t63 47 54 9z" horiz-adv-x="800" />
<glyph glyph-name="cloud" unicode="&#xe81c;" d="m760 494q100 0 170-68t70-166-70-166-170-68l-578 0q-74 0-128 52t-54 124q0 74 53 126t129 52q2 0 10-1t10-1q-2 12-2 38 0 108 78 184t188 76q90 0 160-52t94-134q28 4 40 4z" horiz-adv-x="1000" />
<glyph glyph-name="upload-cloud" unicode="&#xe81d;" d="m760 494q100 0 170-68t70-166-70-166-170-68l-190 0 0 190 106 0-176 230-174-230 104 0 0-190-248 0q-74 0-128 52t-54 124q0 74 53 126t129 52q14 0 20-2-2 12-2 38 0 108 78 184t188 76q90 0 160-52t94-134q28 4 40 4z" horiz-adv-x="1000" />
<glyph glyph-name="up" unicode="&#xe81e;" d="m660 336l-192 0 0-350-276 0 0 350-192 0 330 380z" horiz-adv-x="660" />
<glyph glyph-name="mobile" unicode="&#xe81f;" d="m480 840q42 0 71-29t29-71l0-780q0-40-29-70t-71-30l-380 0q-40 0-70 30t-30 70l0 780q0 42 30 71t70 29l380 0z m-190-940q30 0 50 15t20 35q0 22-20 36t-50 14q-28 0-49-15t-21-35 21-35 49-15z m210 150l0 660-420 0 0-660 420 0z" horiz-adv-x="580" />
<glyph glyph-name="mail" unicode="&#xe820;" d="m30 586q-32 18-28 40 2 14 26 14l846 0q38 0 20-32-8-14-24-22-14-6-192-102t-182-98q-16-10-46-10-28 0-46 10-4 2-182 98t-192 102z m850-100q20 10 20-10l0-368q0-16-17-32t-33-16l-800 0q-16 0-33 16t-17 32l0 368q0 20 20 10l384-200q18-10 46-10t46 10z" horiz-adv-x="900" />
<glyph glyph-name="handshake" unicode="&#xe821;" d="m777 841c-36-9-71-26-113-55-33-23-62-48-98-85-34-34-45-44-68-55-21-11-39-15-70-15-50 0-90 13-185 59-23 11-42 19-43 19-5-5-48-112-100-247-21-53-46-118-56-143-20-49-43-116-42-118 1-1 11-3 22-6 12-2 33-8 48-13 62-18 102-26 139-26 17 0 25 1 26 3 2 1 4 7 5 12 7 28 29 63 63 102 27 29 48 48 171 154 200 172 275 233 298 245 8 4 9 4 21 2 17-3 48-19 106-55 80-50 115-68 145-73 31-6 54 7 64 34 7 20-12 52-62 103-84 86-201 164-246 163-4 0-15-2-25-5z m712-19c-21-11-60-23-83-27-58-10-132-8-293 8-70 7-107 9-127 9l-17-1 21-17c95-77 163-152 178-195 8-21 4-35-15-55-25-27-64-44-98-44-48 0-97 22-192 85-41 27-57 38-67 42l-7 3-25-23c-73-68-143-128-264-226-100-80-137-112-163-138-35-35-49-58-49-79 0-7 2-12 9-23 17-28 52-43 81-34 18 5 65 33 142 85 59 40 76 53 155 119 79 66 86 70 71 46-34-56-157-169-252-232l-26-17-1-10c-1-5-2-17-2-27 0-16 1-20 6-30 5-11 7-13 18-18 12-6 13-6 39-6 23 0 30 1 43 5 33 10 75 33 117 66 47 36 122 105 170 156 15 15 27 28 28 27 1-1-14-28-27-46-43-60-116-138-168-180-23-19-52-38-70-46l-15-7 1-8c5-28 26-43 61-43 27 0 63 13 92 32 30 20 83 71 176 169 19 20 35 36 35 35 2-1-14-33-26-52-30-49-67-95-124-152l-40-41 2-12c1-9 3-17 7-26 12-23 33-31 63-25 24 5 69 26 69 32 0 1-1 10-3 18-2 11-3 23-3 40 1 28 4 35 21 53 13 13 24 19 56 27 11 3 20 5 20 6 1 0-4 24-8 45-3 9-4 23-4 34 0 17 1 21 6 31 6 15 21 29 34 35 17 7 32 8 61 5 15-2 27-3 27-3 0 1 1 5 2 9 19 70 23 77 52 91 34 17 73 11 110-15 12-8 13-9 14-5 2 8 21 33 30 42 46 42 121 60 253 60 32 0 34 0 34 4 0 17-26 137-49 229-27 105-63 224-69 223 0 0-8-4-17-8z m-99-539c-26-16-40-32-44-53-2-10-2-12 4-30 3-11 8-21 9-23 2-4 3-4 12 0 13 5 32 23 39 38 7 15 11 32 9 45-1 10-8 27-12 30-1 1-7-1-17-7z m-164-32c-11-4-27-15-34-22-8-8-14-24-15-37-3-28 24-83 56-115 16-16 26-22 42-22 31 0 67 32 67 60 0 12-8 33-26 70-25 51-41 67-68 68-8 1-16 0-22-2z m-135-99c-12-3-33-17-39-27-14-19-16-59-5-82 11-24 45-62 67-75 41-23 92-2 105 44 7 23 4 31-20 68-22 33-47 58-67 67-12 6-29 8-41 5z m-100-160c-9-5-26-25-33-37-4-9-5-12-5-30l0-20 11-22c10-21 10-21 21-24 16-6 58-5 73 1 24 9 41 28 43 47 2 15-5 28-22 47-33 35-69 50-88 38z" horiz-adv-x="1656" />
<glyph glyph-name="down-open" unicode="&#xe822;" d="m939 399l-414-413q-10-11-25-11t-25 11l-414 413q-11 11-11 26t11 25l92 92q11 11 26 11t25-11l296-296 296 296q11 11 25 11t26-11l92-92q11-11 11-25t-11-26z" horiz-adv-x="1000" />
<glyph glyph-name="up-open" unicode="&#xe823;" d="m939 107l-92-92q-11-10-26-10t-25 10l-296 297-296-297q-11-10-25-10t-26 10l-92 92q-11 11-11 26t11 25l414 414q11 10 25 10t25-10l414-414q11-11 11-25t-11-26z" horiz-adv-x="1000" />
<glyph glyph-name="arrow-curved" unicode="&#xe824;" d="m799 295l0-56 112 0-223-223-224 223 112 0 0 56q0 116-81 197t-197 82-198-82-82-197q0 162 115 276t276 114 276-114 114-276z" horiz-adv-x="928" />
</font>
</defs>
</svg>
